ffmpeg version 7.1.3-0+deb13u1+rpt1 Copyright (c) 2000-2025 the FFmpeg developers
  built with gcc 14 (Debian 14.2.0-19)
  configuration: --prefix=/usr --extra-version=0+deb13u1+rpt1 --toolchain=hardened --incdir=/usr/include/aarch64-linux-gnu --enable-gpl --disable-stripping --disable-libmfx --disable-mmal --disable-omx --enable-gnutls --enable-libaom --enable-libass --enable-libbs2b --enable-libcdio --enable-libcodec2 --enable-libdav1d --enable-libflite --enable-libfontconfig --enable-libfreetype --enable-libfribidi --enable-libglslang --enable-libgme --enable-libgsm --enable-libharfbuzz --enable-libmp3lame --enable-libmysofa --enable-libopenjpeg --enable-libopenmpt --enable-libopus --enable-librubberband --enable-libshine --enable-libsnappy --enable-libsoxr --enable-libspeex --enable-libtheora --enable-libtwolame --enable-libvidstab --enable-libvorbis --enable-libvpx --enable-libwebp --enable-libx265 --enable-libxml2 --enable-libxvid --enable-libzimg --enable-openal --enable-opencl --enable-opengl --disable-sndio --disable-libvpl --libdir=/usr/lib/aarch64-linux-gnu --arch=arm64 --enable-neon --enable-v4l2-request --enable-libudev --enable-epoxy --enable-libdc1394 --enable-libdrm --enable-libiec61883 --enable-vout-drm --enable-chromaprint --enable-frei0r --enable-ladspa --enable-libbluray --enable-libcaca --enable-libdvdnav --enable-libdvdread --enable-libjack --enable-libpulse --enable-librabbitmq --enable-librist --enable-libsrt --enable-libssh --enable-libsvtav1 --enable-libx264 --enable-libzmq --enable-libzvbi --enable-lv2 --enable-sand --enable-sdl2 --enable-libplacebo --enable-librav1e --enable-pocketsphinx --enable-librsvg --enable-libjxl --enable-shared
  libavutil      59. 39.100 / 59. 39.100
  libavcodec     61. 19.101 / 61. 19.101
  libavformat    61.  7.100 / 61.  7.100
  libavdevice    61.  3.100 / 61.  3.100
  libavfilter    10.  4.100 / 10.  4.100
  libswscale      8.  3.100 /  8.  3.100
  libswresample   5.  3.100 /  5.  3.100
  libpostproc    58.  3.100 / 58.  3.100
Input #0, png_pipe, from 'projects/beat-manager/assets/ronald/coverart_MIX1.png':
  Duration: N/A, bitrate: N/A
  Stream #0:0: Video: png, rgba(pc, gbr/bt709/iec61966-2-1), 3000x3000 [SAR 2835:2835 DAR 1:1], 25 fps, 25 tbr, 25 tbn
[aist#1:0/pcm_s16le @ 0x5555a1343e00] Guessed Channel Layout: stereo
Input #1, wav, from 'projects/beat-manager/assets/ronald/r9 - ronald v1 (mixtape).wav':
  Duration: 00:01:06.73, bitrate: 1536 kb/s
  Stream #1:0: Audio: pcm_s16le ([1][0][0][0] / 0x0001), 48000 Hz, stereo, s16, 1536 kb/s
Stream mapping:
  Stream #0:0 -> #0:0 (png (native) -> h264 (libx264))
  Stream #1:0 -> #0:1 (pcm_s16le (native) -> aac (native))
Press [q] to stop, [?] for help
[libx264 @ 0x5555a133ff10] using SAR=1/1
[libx264 @ 0x5555a133ff10] using cpu capabilities: ARMv8 NEON
[libx264 @ 0x5555a133ff10] profile High, level 4.0, 4:2:0, 8-bit
[libx264 @ 0x5555a133ff10] 264 - core 164 r3108 31e19f9 - H.264/MPEG-4 AVC codec - Copyleft 2003-2023 - http://www.videolan.org/x264.html - options: cabac=1 ref=3 deblock=1:0:0 analyse=0x3:0x113 me=hex subme=7 psy=1 psy_rd=1.00:0.00 mixed_ref=1 me_range=16 chroma_me=1 trellis=1 8x8dct=1 cqm=0 deadzone=21,11 fast_pskip=1 chroma_qp_offset=-2 threads=6 lookahead_threads=1 sliced_threads=0 nr=0 decimate=1 interlaced=0 bluray_compat=0 constrained_intra=0 bframes=3 b_pyramid=2 b_adapt=1 b_bias=0 direct=1 weightb=1 open_gop=0 weightp=2 keyint=250 keyint_min=25 scenecut=40 intra_refresh=0 rc_lookahead=40 rc=crf mbtree=1 crf=18.0 qcomp=0.60 qpmin=0 qpmax=69 qpstep=4 ip_ratio=1.40 aq=1:1.00
Output #0, mp4, to 'projects/beat-manager/temp_videos/ronald_r9_clean.mp4':
  Metadata:
    encoder         : Lavf61.7.100
  Stream #0:0: Video: h264 (avc1 / 0x31637661), yuv420p(tv, unknown/bt709/iec61966-2-1, progressive), 1920x1080 [SAR 1:1 DAR 16:9], q=2-31, 25 fps, 12800 tbn
      Metadata:
        encoder         : Lavc61.19.101 libx264
      Side data:
        cpb: bitrate max/min/avg: 0/0/0 buffer size: 0 vbv_delay: N/A
  Stream #0:1: Audio: aac (LC) (mp4a / 0x6134706D), 48000 Hz, stereo, fltp, 320 kb/s
      Metadata:
        encoder         : Lavc61.19.101 aac
frame=    0 fps=0.0 q=0.0 size=       0KiB time=N/A bitrate=N/A speed=N/A    frame=    0 fps=0.0 q=0.0 size=       0KiB time=N/A bitrate=N/A speed=N/A    frame=    0 fps=0.0 q=0.0 size=       0KiB time=N/A bitrate=N/A speed=N/A    frame=    0 fps=0.0 q=0.0 size=       0KiB time=N/A bitrate=N/A speed=N/A    frame=    0 fps=0.0 q=0.0 size=       0KiB time=N/A bitrate=N/A speed=N/A    frame=    0 fps=0.0 q=0.0 size=       0KiB time=N/A bitrate=N/A speed=N/A    frame=   11 fps=3.1 q=23.0 size=     256KiB time=00:00:00.36 bitrate=5826.5kbits/s speed=0.103x    frame=   23 fps=5.7 q=23.0 size=     256KiB time=00:00:00.84 bitrate=2497.1kbits/s speed=0.209x    frame=   32 fps=7.1 q=23.0 size=     256KiB time=00:00:01.20 bitrate=1747.9kbits/s speed=0.266x    frame=   41 fps=8.2 q=23.0 size=     512KiB time=00:00:01.56 bitrate=2688.9kbits/s speed=0.311x    frame=   49 fps=8.9 q=23.0 size=     512KiB time=00:00:01.88 bitrate=2231.2kbits/s speed=0.341x    frame=   58 fps=9.6 q=23.0 size=     512KiB time=00:00:02.24 bitrate=1872.6kbits/s speed=0.373x    frame=   67 fps= 10 q=23.0 size=     512KiB time=00:00:02.60 bitrate=1613.3kbits/s speed=0.399x    frame=   76 fps= 11 q=23.0 size=     512KiB time=00:00:02.96 bitrate=1417.1kbits/s speed=0.422x    frame=   84 fps= 11 q=23.0 size=     512KiB time=00:00:03.28 bitrate=1278.9kbits/s speed=0.437x    frame=   92 fps= 11 q=23.0 size=     512KiB time=00:00:03.60 bitrate=1165.2kbits/s speed=0.449x    frame=  101 fps= 12 q=23.0 size=     512KiB time=00:00:03.96 bitrate=1059.3kbits/s speed=0.465x    frame=  110 fps= 12 q=23.0 size=     512KiB time=00:00:04.32 bitrate= 971.0kbits/s speed=0.479x    frame=  119 fps= 13 q=23.0 size=     512KiB time=00:00:04.68 bitrate= 896.3kbits/s speed=0.492x    frame=  126 fps= 13 q=23.0 size=     512KiB time=00:00:04.96 bitrate= 845.7kbits/s speed=0.495x    frame=  134 fps= 13 q=23.0 size=     512KiB time=00:00:05.28 bitrate= 794.4kbits/s speed=0.502x    frame=  143 fps= 13 q=23.0 size=     512KiB time=00:00:05.64 bitrate= 743.7kbits/s speed=0.512x    frame=  151 fps= 13 q=23.0 size=     512KiB time=00:00:05.96 bitrate= 703.8kbits/s speed=0.517x    frame=  160 fps= 13 q=23.0 size=     512KiB time=00:00:06.32 bitrate= 663.7kbits/s speed=0.525x    frame=  169 fps= 13 q=23.0 size=     512KiB time=00:00:06.68 bitrate= 627.9kbits/s speed=0.533x    frame=  178 fps= 14 q=23.0 size=     512KiB time=00:00:07.04 bitrate= 595.8kbits/s speed=0.539x    frame=  187 fps= 14 q=23.0 size=     512KiB time=00:00:07.40 bitrate= 566.8kbits/s speed=0.546x    frame=  196 fps= 14 q=23.0 size=     512KiB time=00:00:07.76 bitrate= 540.6kbits/s speed=0.552x    frame=  205 fps= 14 q=23.0 size=     768KiB time=00:00:08.12 bitrate= 774.9kbits/s speed=0.557x    frame=  213 fps= 14 q=23.0 size=     768KiB time=00:00:08.44 bitrate= 745.5kbits/s speed=0.56x    frame=  221 fps= 14 q=23.0 size=     768KiB time=00:00:08.76 bitrate= 718.2kbits/s speed=0.563x    frame=  229 fps= 14 q=23.0 size=     768KiB time=00:00:09.08 bitrate= 692.9kbits/s speed=0.565x    frame=  238 fps= 14 q=23.0 size=     768KiB time=00:00:09.44 bitrate= 666.5kbits/s speed=0.57x    frame=  244 fps= 14 q=23.0 size=     768KiB time=00:00:09.68 bitrate= 650.0kbits/s speed=0.567x    frame=  244 fps= 14 q=23.0 size=     768KiB time=00:00:09.68 bitrate= 650.0kbits/s speed=0.551x    frame=  244 fps= 13 q=23.0 size=     768KiB time=00:00:09.68 bitrate= 650.0kbits/s speed=0.536x    frame=  244 fps= 13 q=23.0 size=     768KiB time=00:00:09.68 bitrate= 650.0kbits/s speed=0.521x    frame=  244 fps= 13 q=23.0 size=     768KiB time=00:00:09.68 bitrate= 650.0kbits/s speed=0.507x    frame=  244 fps= 12 q=23.0 size=     768KiB time=00:00:09.68 bitrate= 650.0kbits/s speed=0.494x    frame=  244 fps= 12 q=23.0 size=     768KiB time=00:00:09.68 bitrate= 650.0kbits/s speed=0.482x    frame=  244 fps= 12 q=23.0 size=     768KiB time=00:00:09.68 bitrate= 650.0kbits/s speed=0.47x    frame=  244 fps= 12 q=23.0 size=     768KiB time=00:00:09.68 bitrate= 650.0kbits/s speed=0.459x    frame=  244 fps= 11 q=23.0 size=     768KiB time=00:00:09.68 bitrate= 650.0kbits/s speed=0.448x    frame=  244 fps= 11 q=23.0 size=     768KiB time=00:00:09.68 bitrate= 650.0kbits/s speed=0.438x    frame=  244 fps= 11 q=23.0 size=     768KiB time=00:00:09.68 bitrate= 650.0kbits/s speed=0.429x    frame=  244 fps= 11 q=23.0 size=     768KiB time=00:00:09.68 bitrate= 650.0kbits/s speed=0.419x    frame=  244 fps= 10 q=23.0 size=     768KiB time=00:00:09.68 bitrate= 650.0kbits/s speed=0.41x    frame=  244 fps= 10 q=23.0 size=     768KiB time=00:00:09.68 bitrate= 650.0kbits/s speed=0.402x    frame=  244 fps=9.9 q=23.0 size=     768KiB time=00:00:09.68 bitrate= 650.0kbits/s speed=0.394x    frame=  244 fps=9.7 q=23.0 size=     768KiB time=00:00:09.68 bitrate= 650.0kbits/s speed=0.386x    frame=  244 fps=9.5 q=23.0 size=     768KiB time=00:00:09.68 bitrate= 650.0kbits/s speed=0.378x    frame=  244 fps=9.3 q=23.0 size=     768KiB time=00:00:09.68 bitrate= 650.0kbits/s speed=0.371x    frame=  244 fps=9.2 q=23.0 size=     768KiB time=00:00:09.68 bitrate= 650.0kbits/s speed=0.364x    frame=  244 fps=9.0 q=23.0 size=     768KiB time=00:00:09.68 bitrate= 650.0kbits/s speed=0.357x    frame=  246 fps=8.9 q=20.0 size=     768KiB time=00:00:09.76 bitrate= 644.7kbits/s speed=0.354x    frame=  254 fps=9.0 q=23.0 size=    1280KiB time=00:00:10.08 bitrate=1040.3kbits/s speed=0.358x    frame=  262 fps=9.1 q=23.0 size=    1280KiB time=00:00:10.40 bitrate=1008.3kbits/s speed=0.363x    frame=  269 fps=9.2 q=23.0 size=    1280KiB time=00:00:10.68 bitrate= 981.8kbits/s speed=0.367x    frame=  277 fps=9.3 q=23.0 size=    1280KiB time=00:00:11.00 bitrate= 953.3kbits/s speed=0.371x    frame=  284 fps=9.4 q=23.0 size=    1280KiB time=00:00:11.28 bitrate= 929.6kbits/s speed=0.374x    frame=  290 fps=9.5 q=23.0 size=    1280KiB time=00:00:11.52 bitrate= 910.3kbits/s speed=0.376x    frame=  294 fps=9.4 q=23.0 size=    1280KiB time=00:00:11.68 bitrate= 897.8kbits/s speed=0.375x    frame=  296 fps=9.4 q=23.0 size=    1280KiB time=00:00:11.76 bitrate= 891.7kbits/s speed=0.372x    frame=  302 fps=9.4 q=23.0 size=    1280KiB time=00:00:12.00 bitrate= 873.8kbits/s speed=0.373x    frame=  308 fps=9.4 q=23.0 size=    1280KiB time=00:00:12.24 bitrate= 856.7kbits/s speed=0.375x    frame=  313 fps=9.4 q=23.0 size=    1280KiB time=00:00:12.44 bitrate= 842.9kbits/s speed=0.375x    frame=  318 fps=9.5 q=23.0 size=    1280KiB time=00:00:12.64 bitrate= 829.6kbits/s speed=0.376x    frame=  324 fps=9.5 q=23.0 size=    1280KiB time=00:00:12.88 bitrate= 814.1kbits/s speed=0.377x    frame=  330 fps=9.5 q=23.0 size=    1280KiB time=00:00:13.12 bitrate= 799.2kbits/s speed=0.379x    frame=  336 fps=9.6 q=23.0 size=    1280KiB time=00:00:13.36 bitrate= 784.9kbits/s speed=0.38x    frame=  340 fps=9.5 q=23.0 size=    1536KiB time=00:00:13.52 bitrate= 930.7kbits/s speed=0.379x    frame=  346 fps=9.6 q=23.0 size=    1536KiB time=00:00:13.76 bitrate= 914.5kbits/s speed=0.381x    frame=  352 fps=9.6 q=23.0 size=    1536KiB time=00:00:14.00 bitrate= 898.8kbits/s speed=0.382x    frame=  358 fps=9.6 q=23.0 size=    1536KiB time=00:00:14.24 bitrate= 883.7kbits/s speed=0.383x    frame=  364 fps=9.7 q=23.0 size=    1536KiB time=00:00:14.48 bitrate= 869.0kbits/s speed=0.384x    frame=  370 fps=9.7 q=23.0 size=    1536KiB time=00:00:14.72 bitrate= 854.8kbits/s speed=0.386x    frame=  376 fps=9.7 q=23.0 size=    1536KiB time=00:00:14.96 bitrate= 841.1kbits/s speed=0.387x    frame=  382 fps=9.7 q=23.0 size=    1536KiB time=00:00:15.20 bitrate= 827.8kbits/s speed=0.388x    frame=  386 fps=9.7 q=23.0 size=    1536KiB time=00:00:15.36 bitrate= 819.2kbits/s speed=0.387x    frame=  393 fps=9.8 q=23.0 size=    1536KiB time=00:00:15.64 bitrate= 804.6kbits/s speed=0.389x    frame=  400 fps=9.8 q=23.0 size=    1536KiB time=00:00:15.92 bitrate= 790.4kbits/s speed=0.391x    frame=  406 fps=9.9 q=23.0 size=    1536KiB time=00:00:16.16 bitrate= 778.7kbits/s speed=0.392x    frame=  414 fps=9.9 q=23.0 size=    1536KiB time=00:00:16.48 bitrate= 763.5kbits/s speed=0.395x    frame=  419 fps=9.9 q=23.0 size=    1536KiB time=00:00:16.68 bitrate= 754.4kbits/s speed=0.395x    frame=  428 fps= 10 q=23.0 size=    1536KiB time=00:00:17.04 bitrate= 738.5kbits/s speed=0.399x    frame=  436 fps= 10 q=23.0 size=    1536KiB time=00:00:17.36 bitrate= 724.8kbits/s speed=0.402x    frame=  444 fps= 10 q=23.0 size=    1536KiB time=00:00:17.68 bitrate= 711.7kbits/s speed=0.405x    frame=  452 fps= 10 q=23.0 size=    1536KiB time=00:00:18.00 bitrate= 699.1kbits/s speed=0.407x    frame=  458 fps= 10 q=23.0 size=    1536KiB time=00:00:18.24 bitrate= 689.9kbits/s speed=0.408x    frame=  468 fps= 10 q=23.0 size=    1536KiB time=00:00:18.64 bitrate= 675.1kbits/s speed=0.412x    frame=  476 fps= 10 q=23.0 size=    1536KiB time=00:00:18.96 bitrate= 663.7kbits/s speed=0.415x    frame=  485 fps= 10 q=23.0 size=    1536KiB time=00:00:19.32 bitrate= 651.3kbits/s speed=0.418x    frame=  494 fps= 11 q=23.0 size=    1792KiB time=00:00:19.68 bitrate= 746.0kbits/s speed=0.421x    frame=  500 fps= 11 q=23.0 size=    1792KiB time=00:00:19.92 bitrate= 737.0kbits/s speed=0.422x    frame=  507 fps= 11 q=23.0 size=    2304KiB time=00:00:20.24 bitrate= 932.5kbits/s speed=0.424x    frame=  520 fps= 11 q=23.0 size=    2304KiB time=00:00:20.72 bitrate= 910.9kbits/s speed=0.43x    frame=  529 fps= 11 q=23.0 size=    2304KiB time=00:00:21.08 bitrate= 895.4kbits/s speed=0.433x    frame=  538 fps= 11 q=23.0 size=    2304KiB time=00:00:21.44 bitrate= 880.4kbits/s speed=0.436x    frame=  547 fps= 11 q=23.0 size=    2304KiB time=00:00:21.80 bitrate= 865.8kbits/s speed=0.438x    frame=  554 fps= 11 q=23.0 size=    2304KiB time=00:00:22.08 bitrate= 854.8kbits/s speed=0.44x    frame=  562 fps= 11 q=23.0 size=    2304KiB time=00:00:22.40 bitrate= 842.6kbits/s speed=0.442x    frame=  570 fps= 11 q=23.0 size=    2304KiB time=00:00:22.72 bitrate= 830.8kbits/s speed=0.443x    frame=  578 fps= 11 q=23.0 size=    2304KiB time=00:00:23.04 bitrate= 819.2kbits/s speed=0.445x    frame=  584 fps= 11 q=23.0 size=    2304KiB time=00:00:23.28 bitrate= 810.8kbits/s speed=0.446x    frame=  594 fps= 11 q=23.0 size=    2304KiB time=00:00:23.68 bitrate= 797.1kbits/s speed=0.449x    frame=  602 fps= 11 q=23.0 size=    2304KiB time=00:00:24.00 bitrate= 786.4kbits/s speed=0.451x    frame=  610 fps= 11 q=23.0 size=    2304KiB time=00:00:24.36 bitrate= 774.8kbits/s speed=0.453x    frame=  620 fps= 11 q=23.0 size=    2304KiB time=00:00:24.72 bitrate= 763.5kbits/s speed=0.456x    frame=  628 fps= 11 q=23.0 size=    2304KiB time=00:00:25.04 bitrate= 753.8kbits/s speed=0.457x    frame=  638 fps= 12 q=23.0 size=    2304KiB time=00:00:25.44 bitrate= 741.9kbits/s speed=0.461x    frame=  648 fps= 12 q=23.0 size=    2560KiB time=00:00:25.84 bitrate= 811.6kbits/s speed=0.464x    frame=  656 fps= 12 q=23.0 size=    2560KiB time=00:00:26.16 bitrate= 801.7kbits/s speed=0.465x    frame=  664 fps= 12 q=23.0 size=    2560KiB time=00:00:26.48 bitrate= 792.0kbits/s speed=0.467x    frame=  674 fps= 12 q=23.0 size=    2560KiB time=00:00:26.88 bitrate= 780.2kbits/s speed=0.47x    frame=  682 fps= 12 q=23.0 size=    2560KiB time=00:00:27.20 bitrate= 771.0kbits/s speed=0.471x    frame=  692 fps= 12 q=23.0 size=    2560KiB time=00:00:27.60 bitrate= 759.9kbits/s speed=0.474x    frame=  701 fps= 12 q=23.0 size=    2560KiB time=00:00:27.96 bitrate= 750.1kbits/s speed=0.476x    frame=  710 fps= 12 q=23.0 size=    2560KiB time=00:00:28.32 bitrate= 740.5kbits/s speed=0.478x    frame=  718 fps= 12 q=23.0 size=    2560KiB time=00:00:28.64 bitrate= 732.3kbits/s speed=0.479x    frame=  727 fps= 12 q=23.0 size=    2560KiB time=00:00:29.00 bitrate= 723.2kbits/s speed=0.481x    frame=  736 fps= 12 q=23.0 size=    2560KiB time=00:00:29.36 bitrate= 714.3kbits/s speed=0.483x    frame=  744 fps= 12 q=23.0 size=    2560KiB time=00:00:29.68 bitrate= 706.6kbits/s speed=0.485x    frame=  750 fps= 12 q=23.0 size=    2560KiB time=00:00:29.92 bitrate= 700.9kbits/s speed=0.485x    frame=  760 fps= 12 q=23.0 size=    3072KiB time=00:00:30.32 bitrate= 830.0kbits/s speed=0.487x    frame=  772 fps= 12 q=23.0 size=    3072KiB time=00:00:30.80 bitrate= 817.1kbits/s speed=0.491x    frame=  781 fps= 12 q=23.0 size=    3072KiB time=00:00:31.16 bitrate= 807.6kbits/s speed=0.493x    frame=  788 fps= 12 q=23.0 size=    3072KiB time=00:00:31.44 bitrate= 800.5kbits/s speed=0.493x    frame=  798 fps= 12 q=23.0 size=    3328KiB time=00:00:31.84 bitrate= 856.3kbits/s speed=0.496x    frame=  806 fps= 12 q=23.0 size=    3328KiB time=00:00:32.16 bitrate= 847.7kbits/s speed=0.497x    frame=  816 fps= 13 q=23.0 size=    3328KiB time=00:00:32.56 bitrate= 837.3kbits/s speed=0.499x    frame=  824 fps= 13 q=23.0 size=    3328KiB time=00:00:32.88 bitrate= 829.2kbits/s speed= 0.5x    frame=  834 fps= 13 q=23.0 size=    3328KiB time=00:00:33.28 bitrate= 819.2kbits/s speed=0.502x    frame=  841 fps= 13 q=23.0 size=    3328KiB time=00:00:33.56 bitrate= 812.4kbits/s speed=0.503x    frame=  850 fps= 13 q=23.0 size=    3328KiB time=00:00:33.92 bitrate= 803.8kbits/s speed=0.504x    frame=  860 fps= 13 q=23.0 size=    3328KiB time=00:00:34.32 bitrate= 794.4kbits/s speed=0.507x    frame=  868 fps= 13 q=23.0 size=    3328KiB time=00:00:34.64 bitrate= 787.0kbits/s speed=0.508x    frame=  878 fps= 13 q=23.0 size=    3328KiB time=00:00:35.04 bitrate= 778.1kbits/s speed=0.51x    frame=  886 fps= 13 q=23.0 size=    3328KiB time=00:00:35.36 bitrate= 771.0kbits/s speed=0.511x    frame=  895 fps= 13 q=23.0 size=    3328KiB time=00:00:35.72 bitrate= 763.3kbits/s speed=0.512x    frame=  904 fps= 13 q=23.0 size=    3328KiB time=00:00:36.08 bitrate= 755.6kbits/s speed=0.514x    frame=  912 fps= 13 q=23.0 size=    3328KiB time=00:00:36.40 bitrate= 749.0kbits/s speed=0.514x    frame=  920 fps= 13 q=23.0 size=    3328KiB time=00:00:36.72 bitrate= 742.5kbits/s speed=0.515x    frame=  930 fps= 13 q=23.0 size=    3328KiB time=00:00:37.12 bitrate= 734.5kbits/s speed=0.517x    frame=  939 fps= 13 q=23.0 size=    3328KiB time=00:00:37.48 bitrate= 727.4kbits/s speed=0.519x    frame=  948 fps= 13 q=23.0 size=    3328KiB time=00:00:37.84 bitrate= 720.5kbits/s speed=0.52x    frame=  956 fps= 13 q=23.0 size=    3584KiB time=00:00:38.16 bitrate= 769.4kbits/s speed=0.521x    frame=  964 fps= 13 q=23.0 size=    3584KiB time=00:00:38.48 bitrate= 763.0kbits/s speed=0.522x    frame=  974 fps= 13 q=23.0 size=    3584KiB time=00:00:38.88 bitrate= 755.2kbits/s speed=0.524x    frame=  983 fps= 13 q=23.0 size=    3584KiB time=00:00:39.24 bitrate= 748.2kbits/s speed=0.525x    frame=  992 fps= 13 q=23.0 size=    3584KiB time=00:00:39.60 bitrate= 741.4kbits/s speed=0.526x    frame= 1000 fps= 13 q=23.0 size=    3584KiB time=00:00:39.92 bitrate= 735.5kbits/s speed=0.527x    frame= 1008 fps= 13 q=23.0 size=    4096KiB time=00:00:40.24 bitrate= 833.9kbits/s speed=0.528x    frame= 1016 fps= 13 q=23.0 size=    4096KiB time=00:00:40.56 bitrate= 827.3kbits/s speed=0.528x    frame= 1026 fps= 13 q=23.0 size=    4096KiB time=00:00:40.96 bitrate= 819.2kbits/s speed=0.53x    frame= 1033 fps= 13 q=23.0 size=    4096KiB time=00:00:41.24 bitrate= 813.6kbits/s speed=0.53x    frame= 1042 fps= 13 q=23.0 size=    4096KiB time=00:00:41.60 bitrate= 806.6kbits/s speed=0.531x    frame= 1050 fps= 13 q=23.0 size=    4096KiB time=00:00:41.92 bitrate= 800.4kbits/s speed=0.532x    frame= 1059 fps= 13 q=23.0 size=    4096KiB time=00:00:42.28 bitrate= 793.6kbits/s speed=0.533x    frame= 1068 fps= 13 q=23.0 size=    4096KiB time=00:00:42.64 bitrate= 786.9kbits/s speed=0.534x    frame= 1076 fps= 13 q=23.0 size=    4096KiB time=00:00:42.96 bitrate= 781.1kbits/s speed=0.535x    frame= 1086 fps= 13 q=23.0 size=    4096KiB time=00:00:43.36 bitrate= 773.9kbits/s speed=0.537x    frame= 1092 fps= 13 q=23.0 size=    4096KiB time=00:00:43.60 bitrate= 769.6kbits/s speed=0.536x    frame= 1100 fps= 13 q=23.0 size=    4352KiB time=00:00:43.92 bitrate= 811.7kbits/s speed=0.537x    frame= 1109 fps= 13 q=23.0 size=    4352KiB time=00:00:44.28 bitrate= 805.1kbits/s speed=0.538x    frame= 1118 fps= 14 q=23.0 size=    4352KiB time=00:00:44.64 bitrate= 798.7kbits/s speed=0.539x    frame= 1126 fps= 14 q=23.0 size=    4352KiB time=00:00:44.96 bitrate= 793.0kbits/s speed=0.54x    frame= 1134 fps= 14 q=23.0 size=    4352KiB time=00:00:45.28 bitrate= 787.4kbits/s speed=0.54x    frame= 1144 fps= 14 q=23.0 size=    4352KiB time=00:00:45.68 bitrate= 780.5kbits/s speed=0.542x    frame= 1154 fps= 14 q=23.0 size=    4352KiB time=00:00:46.08 bitrate= 773.7kbits/s speed=0.543x    frame= 1162 fps= 14 q=23.0 size=    4352KiB time=00:00:46.40 bitrate= 768.4kbits/s speed=0.544x    frame= 1172 fps= 14 q=23.0 size=    4352KiB time=00:00:46.80 bitrate= 761.8kbits/s speed=0.545x    frame= 1180 fps= 14 q=23.0 size=    4352KiB time=00:00:47.12 bitrate= 756.6kbits/s speed=0.546x    frame= 1188 fps= 14 q=23.0 size=    4352KiB time=00:00:47.44 bitrate= 751.5kbits/s speed=0.546x    frame= 1198 fps= 14 q=23.0 size=    4352KiB time=00:00:47.84 bitrate= 745.2kbits/s speed=0.548x    frame= 1204 fps= 14 q=23.0 size=    4352KiB time=00:00:48.08 bitrate= 741.5kbits/s speed=0.547x    frame= 1213 fps= 14 q=23.0 size=    4352KiB time=00:00:48.44 bitrate= 736.0kbits/s speed=0.548x    frame= 1222 fps= 14 q=23.0 size=    4352KiB time=00:00:48.80 bitrate= 730.6kbits/s speed=0.549x    frame= 1232 fps= 14 q=23.0 size=    4352KiB time=00:00:49.20 bitrate= 724.6kbits/s speed=0.551x    frame= 1241 fps= 14 q=23.0 size=    4352KiB time=00:00:49.56 bitrate= 719.4kbits/s speed=0.552x    frame= 1246 fps= 14 q=20.0 size=    4352KiB time=00:00:49.76 bitrate= 716.5kbits/s speed=0.551x    frame= 1256 fps= 14 q=23.0 size=    5120KiB time=00:00:50.16 bitrate= 836.2kbits/s speed=0.552x    frame= 1266 fps= 14 q=23.0 size=    5120KiB time=00:00:50.56 bitrate= 829.6kbits/s speed=0.554x    frame= 1274 fps= 14 q=23.0 size=    5120KiB time=00:00:50.88 bitrate= 824.4kbits/s speed=0.554x    frame= 1284 fps= 14 q=23.0 size=    5120KiB time=00:00:51.28 bitrate= 817.9kbits/s speed=0.555x    frame= 1292 fps= 14 q=23.0 size=    5120KiB time=00:00:51.60 bitrate= 812.9kbits/s speed=0.556x    frame= 1302 fps= 14 q=23.0 size=    5120KiB time=00:00:52.00 bitrate= 806.6kbits/s speed=0.557x    frame= 1310 fps= 14 q=23.0 size=    5120KiB time=00:00:52.32 bitrate= 801.7kbits/s speed=0.557x    frame= 1320 fps= 14 q=23.0 size=    5120KiB time=00:00:52.72 bitrate= 795.6kbits/s speed=0.559x    frame= 1329 fps= 14 q=23.0 size=    5120KiB time=00:00:53.08 bitrate= 790.2kbits/s speed=0.559x    frame= 1336 fps= 14 q=23.0 size=    5120KiB time=00:00:53.36 bitrate= 786.0kbits/s speed=0.559x    frame= 1346 fps= 14 q=23.0 size=    5120KiB time=00:00:53.76 bitrate= 780.2kbits/s speed=0.561x    frame= 1354 fps= 14 q=23.0 size=    5120KiB time=00:00:54.08 bitrate= 775.6kbits/s speed=0.561x    frame= 1364 fps= 14 q=23.0 size=    5120KiB time=00:00:54.48 bitrate= 769.9kbits/s speed=0.562x    frame= 1374 fps= 14 q=23.0 size=    5120KiB time=00:00:54.88 bitrate= 764.3kbits/s speed=0.564x    frame= 1382 fps= 14 q=23.0 size=    5120KiB time=00:00:55.20 bitrate= 759.8kbits/s speed=0.564x    frame= 1390 fps= 14 q=23.0 size=    5120KiB time=00:00:55.52 bitrate= 755.5kbits/s speed=0.564x    frame= 1400 fps= 14 q=23.0 size=    5120KiB time=00:00:55.92 bitrate= 750.1kbits/s speed=0.565x    frame= 1408 fps= 14 q=23.0 size=    5376KiB time=00:00:56.24 bitrate= 783.1kbits/s speed=0.566x    frame= 1418 fps= 14 q=23.0 size=    5376KiB time=00:00:56.64 bitrate= 777.6kbits/s speed=0.567x    frame= 1426 fps= 14 q=23.0 size=    5376KiB time=00:00:56.96 bitrate= 773.2kbits/s speed=0.567x    frame= 1434 fps= 14 q=23.0 size=    5376KiB time=00:00:57.28 bitrate= 768.9kbits/s speed=0.568x    frame= 1444 fps= 14 q=23.0 size=    5376KiB time=00:00:57.68 bitrate= 763.5kbits/s speed=0.569x    frame= 1452 fps= 14 q=23.0 size=    5376KiB time=00:00:58.00 bitrate= 759.3kbits/s speed=0.569x    frame= 1462 fps= 14 q=23.0 size=    5376KiB time=00:00:58.40 bitrate= 754.1kbits/s speed=0.57x    frame= 1470 fps= 14 q=23.0 size=    5376KiB time=00:00:58.72 bitrate= 750.0kbits/s speed=0.571x    frame= 1480 fps= 14 q=23.0 size=    5376KiB time=00:00:59.12 bitrate= 744.9kbits/s speed=0.572x    frame= 1488 fps= 14 q=23.0 size=    5376KiB time=00:00:59.44 bitrate= 740.9kbits/s speed=0.572x    frame= 1497 fps= 14 q=23.0 size=    5376KiB time=00:00:59.80 bitrate= 736.5kbits/s speed=0.573x    frame= 1501 fps= 14 q=23.0 size=    5376KiB time=00:00:59.96 bitrate= 734.5kbits/s speed=0.572x    frame= 1514 fps= 14 q=23.0 size=    5888KiB time=00:01:00.48 bitrate= 797.5kbits/s speed=0.574x    frame= 1522 fps= 14 q=23.0 size=    5888KiB time=00:01:00.80 bitrate= 793.3kbits/s speed=0.574x    frame= 1532 fps= 14 q=23.0 size=    5888KiB time=00:01:01.20 bitrate= 788.2kbits/s speed=0.575x    frame= 1541 fps= 14 q=23.0 size=    5888KiB time=00:01:01.56 bitrate= 783.5kbits/s speed=0.576x    frame= 1550 fps= 14 q=23.0 size=    6144KiB time=00:01:01.92 bitrate= 812.9kbits/s speed=0.576x    frame= 1559 fps= 14 q=23.0 size=    6144KiB time=00:01:02.28 bitrate= 808.2kbits/s speed=0.577x    frame= 1568 fps= 14 q=23.0 size=    6144KiB time=00:01:02.64 bitrate= 803.5kbits/s speed=0.578x    frame= 1574 fps= 14 q=23.0 size=    6144KiB time=00:01:02.88 bitrate= 800.4kbits/s speed=0.577x    frame= 1584 fps= 14 q=23.0 size=    6144KiB time=00:01:03.28 bitrate= 795.4kbits/s speed=0.578x    frame= 1592 fps= 14 q=23.0 size=    6144KiB time=00:01:03.60 bitrate= 791.4kbits/s speed=0.579x    frame= 1600 fps= 14 q=23.0 size=    6144KiB time=00:01:03.92 bitrate= 787.4kbits/s speed=0.579x    frame= 1609 fps= 15 q=23.0 size=    6144KiB time=00:01:04.28 bitrate= 783.0kbits/s speed=0.579x    frame= 1618 fps= 15 q=23.0 size=    6144KiB time=00:01:04.64 bitrate= 778.7kbits/s speed=0.58x    frame= 1626 fps= 15 q=23.0 size=    6144KiB time=00:01:04.96 bitrate= 774.8kbits/s speed=0.58x    frame= 1635 fps= 15 q=23.0 size=    6144KiB time=00:01:05.32 bitrate= 770.5kbits/s speed=0.581x    frame= 1644 fps= 15 q=23.0 size=    6144KiB time=00:01:05.68 bitrate= 766.3kbits/s speed=0.582x    frame= 1654 fps= 15 q=23.0 size=    6144KiB time=00:01:06.08 bitrate= 761.7kbits/s speed=0.583x    frame= 1662 fps= 15 q=23.0 size=    6144KiB time=00:01:06.40 bitrate= 758.0kbits/s speed=0.583x    frame= 1686 fps= 15 q=23.0 size=    6144KiB time=N/A bitrate=N/A speed=N/A    [out#0/mp4 @ 0x5555a1344100] video:3797KiB audio:2530KiB subtitle:0KiB other streams:0KiB global headers:0KiB muxing overhead: 0.816482%
frame= 1716 fps= 15 q=-1.0 Lsize=    6379KiB time=00:01:06.73 bitrate= 783.1kbits/s speed=0.581x    
[libx264 @ 0x5555a133ff10] frame I:7     Avg QP:14.66  size:533761
[libx264 @ 0x5555a133ff10] frame P:432   Avg QP:19.24  size:   100
[libx264 @ 0x5555a133ff10] frame B:1277  Avg QP:27.45  size:    85
[libx264 @ 0x5555a133ff10] consecutive B-frames:  0.8%  0.0%  0.2% 99.1%
[libx264 @ 0x5555a133ff10] mb I  I16..4: 15.4%  1.8% 82.8%
[libx264 @ 0x5555a133ff10] mb P  I16..4:  0.0%  0.0%  0.0%  P16..4:  0.0%  0.0%  0.0%  0.0%  0.0%    skip:99.9%
[libx264 @ 0x5555a133ff10] mb B  I16..4:  0.0%  0.0%  0.0%  B16..8:  0.2%  0.0%  0.0%  direct: 0.0%  skip:99.8%  L0:54.0% L1:46.0% BI: 0.0%
[libx264 @ 0x5555a133ff10] 8x8 transform intra:9.2% inter:10.5%
[libx264 @ 0x5555a133ff10] coded y,uvDC,uvAC intra: 60.2% 0.0% 0.0% inter: 0.0% 0.0% 0.0%
[libx264 @ 0x5555a133ff10] i16 v,h,dc,p: 84% 11%  5%  0%
[libx264 @ 0x5555a133ff10] i8 v,h,dc,ddl,ddr,vr,hd,vl,hu: 13%  3% 84%  0%  0%  0%  0%  0%  0%
[libx264 @ 0x5555a133ff10] i4 v,h,dc,ddl,ddr,vr,hd,vl,hu: 31% 16% 16%  6%  5%  7%  6%  7%  5%
[libx264 @ 0x5555a133ff10] i8c dc,h,v,p: 100%  0%  0%  0%
[libx264 @ 0x5555a133ff10] Weighted P-Frames: Y:0.0% UV:0.0%
[libx264 @ 0x5555a133ff10] ref P L0: 95.4%  0.8%  3.6%  0.1%
[libx264 @ 0x5555a133ff10] ref B L0: 79.9% 20.0%  0.1%
[libx264 @ 0x5555a133ff10] ref B L1: 96.5%  3.5%
[libx264 @ 0x5555a133ff10] kb/s:453.12
[aac @ 0x5555a13535f0] Qavg: 28146.168
